<?xml version="1.0" encoding="utf-8"?>
<!-- Generator: Adobe Illustrator 21.1.0, SVG Export Plug-In . SVG Version: 6.00 Build 0)  -->
<svg version="1.2" baseProfile="tiny" id="Livello_1"
	 xmlns="http://www.w3.org/2000/svg" xmlns:xlink="http://www.w3.org/1999/xlink" x="0px" y="0px" viewBox="0 0 222.1 152.4"
	 xml:space="preserve">
<g>
	<g id="G">
		<path d="M56.7,94.8c-8.6,0-16.4-2-23.3-5.9c-6.9-3.9-12.4-9.3-16.3-16.1c-4-6.8-5.9-14.4-5.9-22.8c0-8.4,1.1-12.8,5.1-19.7
			C19.9,24,24.8,19.8,31.7,16c7-3.9,14.8-5.8,23.4-5.8c12.7,0,23.3,4,31.6,12.1c0.3,0.3,0.8,0.3,1.1,0l6-6.2c0.3-0.3,0.3-0.8,0-1.1
			c-4.6-4.9-10.2-8.6-16.7-11.1C70.3,1.3,62.8,0,54.7,0c-10.8,0-20.4,2.4-29,7.1c-8.5,4.7-14.5,10.6-19.4,19C1.4,34.5,0,41.1,0,51.5
			c0,10.4,2.4,18.3,7.3,26.7c4.9,8.4,11.6,14.9,20.1,19.7c8.5,4.7,18.1,7.2,28.8,7.2c7.5,0,13.3-1.3,20.2-3.6
			c5.6-1.9,12.3-5.7,14.4-7.2c0.3-0.2,0.4-0.6,0.3-0.9l-3.9-7.9c0,0-0.5-0.1-0.7,0.1C78.9,90.9,67.6,94.8,56.7,94.8z"/>
	</g>
	<path id="M" d="M106.1,47.4c0,0,24.2,45.1,31.8,58.9c1.2,2.2,4.1,2.7,6.1,1.1l65.2-53.2c0.6-0.7,1.8-0.2,1.8,0.7l0,22.3
		c0,0.6,0.5,1.1,1,1.1l9.1,0c0.6,0,1.1-0.5,1.1-1L222,36.8c-0.1-3.4-4-5.2-6.6-3.1l-71.1,58.6c-0.5,0.6-1.5,0.4-1.7-0.4l-30.4-56.4
		c-1-1.8-3.2-2.6-5.1-1.8l-48.4,20c-0.1,0.3-0.2,0.5-0.3,0.8l3.8,9.1c0.5,0.2,0.7,0.3,1.2,0.5l41.4-17.4
		C105.2,46.6,105.9,46.8,106.1,47.4z"/>
</g>
<g>
	<path d="M18.9,137l-4.2,11.2h-1.9l-3.2-8.5l-3.3,8.5H4.3L0.1,137h1.9l3.3,8.9l3.4-8.9h1.7l3.3,9l3.3-9H18.9z"/>
	<path d="M38,143.3h-9.1c0.1,1,0.6,1.8,1.3,2.4c0.7,0.6,1.7,0.9,2.8,0.9c1.3,0,2.4-0.4,3.2-1.4l1.1,1.3c-0.5,0.6-1.1,1-1.9,1.4
		s-1.6,0.5-2.5,0.5c-1.2,0-2.2-0.2-3.2-0.7c-0.9-0.5-1.6-1.2-2.1-2s-0.7-1.9-0.7-3c0-1.1,0.2-2.1,0.7-2.9c0.5-0.9,1.2-1.6,2-2
		c0.9-0.5,1.8-0.7,2.9-0.7c1.1,0,2,0.2,2.9,0.7c0.8,0.5,1.5,1.2,2,2c0.5,0.9,0.7,1.9,0.7,3C38,142.8,38,143,38,143.3z M30,139.5
		c-0.7,0.6-1,1.4-1.2,2.3h7.2c-0.1-1-0.5-1.7-1.2-2.3s-1.5-0.9-2.4-0.9C31.5,138.6,30.7,138.9,30,139.5z"/>
	<path d="M56.9,137.6c0.9,0.5,1.5,1.1,2,2c0.5,0.9,0.7,1.9,0.7,3c0,1.1-0.2,2.1-0.7,3c-0.5,0.9-1.2,1.5-2,2
		c-0.9,0.5-1.8,0.7-2.9,0.7c-0.8,0-1.6-0.2-2.3-0.5c-0.7-0.3-1.3-0.8-1.7-1.4v1.8H48v-15.7h2v6.2c0.4-0.6,1-1,1.7-1.3
		c0.7-0.3,1.4-0.5,2.2-0.5C55.1,136.9,56,137.1,56.9,137.6z M55.8,146.1c0.6-0.3,1-0.8,1.4-1.4c0.3-0.6,0.5-1.3,0.5-2.1
		c0-0.8-0.2-1.5-0.5-2.1c-0.3-0.6-0.8-1.1-1.4-1.4c-0.6-0.3-1.2-0.5-1.9-0.5c-0.7,0-1.3,0.2-1.9,0.5c-0.6,0.3-1,0.8-1.4,1.4
		c-0.3,0.6-0.5,1.3-0.5,2.1c0,0.8,0.2,1.5,0.5,2.1c0.3,0.6,0.8,1.1,1.4,1.4s1.2,0.5,1.9,0.5C54.5,146.6,55.2,146.4,55.8,146.1z"/>
	<path d="M92.5,132.5v15.7h-1v-2.6c-0.4,0.9-1,1.5-1.8,2c-0.8,0.5-1.7,0.7-2.7,0.7c-1,0-2-0.2-2.8-0.7c-0.8-0.5-1.5-1.1-2-2
		c-0.5-0.8-0.7-1.8-0.7-2.9c0-1.1,0.2-2.1,0.7-2.9c0.5-0.9,1.1-1.5,2-2c0.8-0.5,1.8-0.7,2.8-0.7c1,0,1.9,0.2,2.7,0.7
		c0.8,0.5,1.4,1.1,1.9,2v-7.2H92.5z M89.2,146.8c0.7-0.4,1.2-1,1.6-1.7c0.4-0.7,0.6-1.5,0.6-2.4c0-0.9-0.2-1.7-0.6-2.4
		c-0.4-0.7-0.9-1.3-1.6-1.7c-0.7-0.4-1.4-0.6-2.3-0.6c-0.8,0-1.6,0.2-2.3,0.6c-0.7,0.4-1.2,1-1.6,1.7c-0.4,0.7-0.6,1.5-0.6,2.4
		c0,0.9,0.2,1.7,0.6,2.4c0.4,0.7,0.9,1.3,1.6,1.7c0.7,0.4,1.4,0.6,2.3,0.6C87.8,147.4,88.6,147.2,89.2,146.8z"/>
	<path d="M113.5,143H104c0,0.9,0.2,1.6,0.7,2.3c0.4,0.7,1,1.2,1.7,1.6c0.7,0.4,1.5,0.5,2.4,0.5c0.7,0,1.4-0.1,2-0.4
		c0.6-0.3,1.1-0.6,1.5-1.1l0.6,0.7c-0.5,0.6-1.1,1-1.8,1.3c-0.7,0.3-1.5,0.5-2.4,0.5c-1.1,0-2.1-0.2-2.9-0.7c-0.9-0.5-1.5-1.1-2-2
		c-0.5-0.8-0.7-1.8-0.7-2.9c0-1.1,0.2-2,0.7-2.9c0.5-0.9,1.1-1.5,1.9-2c0.8-0.5,1.7-0.7,2.7-0.7c1,0,1.9,0.2,2.7,0.7
		c0.8,0.5,1.4,1.1,1.9,2c0.5,0.8,0.7,1.8,0.7,2.9L113.5,143z M106.1,138.5c-0.6,0.4-1.1,0.8-1.5,1.5c-0.4,0.6-0.6,1.3-0.6,2.1h8.5
		c0-0.8-0.3-1.5-0.6-2.1s-0.9-1.1-1.5-1.5s-1.3-0.5-2.1-0.5C107.5,138,106.8,138.2,106.1,138.5z"/>
	<path d="M124.3,147.9c-0.8-0.3-1.4-0.6-1.9-1l0.5-0.8c0.4,0.4,1,0.7,1.7,1c0.7,0.3,1.5,0.4,2.2,0.4c1.1,0,1.9-0.2,2.5-0.5
		c0.5-0.4,0.8-0.9,0.8-1.5c0-0.5-0.1-0.8-0.4-1.1s-0.6-0.5-1.1-0.6c-0.4-0.1-1-0.3-1.8-0.4c-0.9-0.2-1.6-0.3-2.1-0.5
		c-0.5-0.2-1-0.5-1.4-0.9c-0.4-0.4-0.6-1-0.6-1.7c0-0.9,0.4-1.6,1.1-2.2c0.7-0.6,1.8-0.9,3.1-0.9c0.7,0,1.4,0.1,2.1,0.3
		c0.7,0.2,1.3,0.5,1.7,0.8l-0.5,0.8c-0.5-0.3-1-0.6-1.5-0.7c-0.6-0.2-1.2-0.2-1.8-0.2c-1,0-1.8,0.2-2.3,0.6
		c-0.5,0.4-0.8,0.9-0.8,1.5c0,0.5,0.1,0.9,0.4,1.1c0.3,0.3,0.7,0.5,1.1,0.6c0.4,0.1,1,0.3,1.8,0.4c0.9,0.2,1.6,0.3,2.1,0.5
		c0.5,0.2,1,0.5,1.3,0.9c0.4,0.4,0.6,0.9,0.6,1.6c0,0.9-0.4,1.7-1.1,2.2c-0.8,0.6-1.8,0.8-3.2,0.8
		C125.9,148.3,125.1,148.2,124.3,147.9z"/>
	<path d="M141.2,134.2c-0.2-0.2-0.3-0.4-0.3-0.6c0-0.2,0.1-0.4,0.3-0.6c0.2-0.2,0.4-0.3,0.6-0.3c0.2,0,0.4,0.1,0.6,0.2
		c0.2,0.2,0.3,0.4,0.3,0.6c0,0.2-0.1,0.4-0.3,0.6c-0.2,0.2-0.4,0.3-0.6,0.3C141.6,134.5,141.4,134.4,141.2,134.2z M141.3,137.2h1.1
		v11.1h-1.1V137.2z"/>
	<path d="M164,137.2v9.9c0,1.8-0.4,3.2-1.3,4.1c-0.9,0.9-2.2,1.3-4,1.3c-1,0-2-0.2-2.9-0.5s-1.6-0.7-2.2-1.3l0.6-0.8
		c0.5,0.5,1.2,0.9,2,1.2c0.8,0.3,1.6,0.4,2.5,0.4c1.5,0,2.6-0.3,3.3-1c0.7-0.7,1.1-1.8,1.1-3.2v-1.9c-0.4,0.8-1.1,1.4-1.9,1.9
		c-0.8,0.4-1.7,0.7-2.7,0.7c-1,0-2-0.2-2.8-0.7c-0.8-0.5-1.5-1.1-2-1.9c-0.5-0.8-0.7-1.7-0.7-2.8c0-1,0.2-2,0.7-2.8
		c0.5-0.8,1.1-1.5,2-1.9c0.8-0.4,1.8-0.7,2.8-0.7c1,0,1.9,0.2,2.8,0.7c0.8,0.5,1.4,1.1,1.9,1.9v-2.5H164z M160.8,146.3
		c0.7-0.4,1.2-0.9,1.6-1.6c0.4-0.7,0.6-1.4,0.6-2.3c0-0.9-0.2-1.6-0.6-2.3c-0.4-0.7-0.9-1.2-1.6-1.6c-0.7-0.4-1.5-0.6-2.3-0.6
		s-1.6,0.2-2.3,0.6c-0.7,0.4-1.2,0.9-1.6,1.6c-0.4,0.7-0.6,1.4-0.6,2.3c0,0.9,0.2,1.6,0.6,2.3c0.4,0.7,0.9,1.2,1.6,1.6
		c0.7,0.4,1.5,0.6,2.3,0.6S160.1,146.7,160.8,146.3z"/>
	<path d="M184.4,138.3c0.8,0.8,1.2,2,1.2,3.5v6.5h-1.1v-6.4c0-1.3-0.3-2.2-0.9-2.8c-0.6-0.7-1.5-1-2.6-1c-1.3,0-2.3,0.4-3.1,1.2
		c-0.7,0.8-1.1,1.8-1.1,3.1v5.9h-1.1v-11.1h1v2.4c0.4-0.8,0.9-1.4,1.7-1.8c0.8-0.4,1.6-0.7,2.7-0.7
		C182.5,137.1,183.6,137.5,184.4,138.3z"/>
	<path d="M206.5,143H197c0,0.9,0.2,1.6,0.7,2.3c0.4,0.7,1,1.2,1.7,1.6c0.7,0.4,1.5,0.5,2.4,0.5c0.7,0,1.4-0.1,2-0.4
		c0.6-0.3,1.1-0.6,1.5-1.1l0.6,0.7c-0.5,0.6-1.1,1-1.8,1.3c-0.7,0.3-1.5,0.5-2.4,0.5c-1.1,0-2.1-0.2-2.9-0.7c-0.9-0.5-1.5-1.1-2-2
		s-0.7-1.8-0.7-2.9c0-1.1,0.2-2,0.7-2.9c0.5-0.9,1.1-1.5,1.9-2c0.8-0.5,1.7-0.7,2.7-0.7c1,0,1.9,0.2,2.7,0.7c0.8,0.5,1.4,1.1,1.9,2
		c0.5,0.8,0.7,1.8,0.7,2.9L206.5,143z M199.2,138.5c-0.6,0.4-1.1,0.8-1.5,1.5c-0.4,0.6-0.6,1.3-0.6,2.1h8.5c0-0.8-0.3-1.5-0.6-2.1
		c-0.4-0.6-0.9-1.1-1.5-1.5s-1.3-0.5-2.1-0.5C200.5,138,199.8,138.2,199.2,138.5z"/>
	<path d="M219.6,137.7c0.7-0.4,1.6-0.6,2.6-0.6v1l-0.3,0c-1.2,0-2.2,0.4-2.9,1.2c-0.7,0.8-1,1.8-1,3.2v5.8H217v-11.1h1v2.4
		C218.4,138.8,218.9,138.2,219.6,137.7z"/>
</g>
</svg>
